<svg width="527" height="278" viewBox="0 0 527 278" fill="none" xmlns="http://www.w3.org/2000/svg">
<path fill-rule="evenodd" clip-rule="evenodd" d="M412.458 1.41959C435.392 4.37336 456.438 12.2656 475.596 25.0965C476.173 25.7903 476.399 26.5912 476.282 27.4985C465.837 27.9425 455.544 29.4297 445.4 31.9593C432.338 36.1223 419.299 40.3546 406.281 44.6556C365.725 58.4795 325.234 72.4337 284.809 86.519C282.86 66.52 288.35 48.9051 301.28 33.675C310.069 24.2386 320.364 16.8041 332.162 11.3707C358.033 1.11213 384.798 -2.20538 412.458 1.41959Z" fill="white"/>
<path fill-rule="evenodd" clip-rule="evenodd" d="M32.9418 4.85101C54.6744 4.85101 76.4063 4.85101 98.1389 4.85101C98.1389 23.8385 98.1389 42.8253 98.1389 61.8127C97.2241 61.355 96.5378 60.6687 96.0801 59.7539C96.6394 58.2214 96.1817 56.8488 94.7075 55.6362C96.0643 39.2758 96.5214 22.8049 96.0801 6.22359C75.8312 6.25104 55.7004 6.25104 35.6869 6.22359C35.8825 58.0862 35.8825 109.901 35.6869 161.667C37.7286 162.215 39.1012 163.473 39.8046 165.442C37.6099 166.325 35.3225 166.782 32.9418 166.814C32.9418 164.527 32.9418 162.239 32.9418 159.952C32.9418 108.252 32.9418 56.551 32.9418 4.85101Z" fill="white"/>
<path fill-rule="evenodd" clip-rule="evenodd" d="M196.964 4.85101C218.468 4.85101 239.972 4.85101 261.475 4.85101C261.475 33.4465 261.475 62.0413 261.475 90.6368C259.155 90.6642 256.867 90.4357 254.612 89.9505C256.292 89.2827 258.122 89.0542 260.102 89.2642C260.259 61.6391 260.03 33.8445 259.416 5.88044C239.659 5.33141 220.1 5.44602 200.739 6.22359C200.525 31.7129 200.41 57.1055 200.396 82.4013C199.481 82.4013 198.565 82.4013 197.65 82.4013C196.965 56.6684 196.736 30.818 196.964 4.85101Z" fill="white"/>
<path fill-rule="evenodd" clip-rule="evenodd" d="M254.612 89.9505C246.841 88.9856 239.062 88.0701 231.278 87.2054C229.25 86.7531 227.192 86.5246 225.102 86.5191C215.931 85.2968 206.781 83.9242 197.65 82.4014C198.565 82.4014 199.481 82.4014 200.396 82.4014C200.41 57.1055 200.525 31.713 200.739 6.22361C220.099 5.44605 239.659 5.33144 259.416 5.88047C260.03 33.8446 260.259 61.6391 260.102 89.2642C258.122 89.0542 256.292 89.2827 254.612 89.9505Z" fill="white"/>
<path fill-rule="evenodd" clip-rule="evenodd" d="M487.949 33.675C480.16 33.6112 472.384 33.8404 464.616 34.3613C469.269 33.3586 474.073 32.9009 479.028 32.9887C482.123 32.9894 485.101 33.2179 487.949 33.675Z" fill="white"/>
<path fill-rule="evenodd" clip-rule="evenodd" d="M32.9418 4.85102C54.7856 4.16611 76.7467 3.93689 98.8252 4.16474C98.8252 6.68135 98.8252 9.19727 98.8252 11.7139C98.8252 28.4133 98.8252 45.1134 98.8252 61.8128C98.5967 62.7276 98.3675 62.7276 98.1389 61.8128C98.1389 42.8253 98.1389 23.8385 98.1389 4.85102C76.4063 4.85102 54.6744 4.85102 32.9418 4.85102Z" fill="white"/>
<path fill-rule="evenodd" clip-rule="evenodd" d="M487.949 33.675C502.54 35.6522 514.783 42.058 524.666 52.891C526.34 55.6245 526.793 58.5982 526.038 61.8128C523.094 66.0176 519.772 69.9068 516.087 73.4796C505.738 81.1729 494.531 87.4634 482.459 92.3525C457.044 100.862 431.651 109.326 406.281 117.745C413.515 116.394 420.835 115.937 428.242 116.373C431.492 117.105 433.665 119.05 434.762 122.206C439.146 136.388 433.999 144.623 419.321 146.912C408.939 149.415 398.416 150.215 387.752 149.314C382.741 148.08 379.31 145.107 377.457 140.393C368.475 139.005 359.553 137.289 350.692 135.245C327.561 141.944 304.227 147.777 280.691 152.746C241.224 160.492 201.649 167.698 161.964 174.364C142.08 177.694 122.178 180.897 102.257 183.972C105.899 204.2 117.795 216.438 137.943 220.688C155.506 223.297 170.491 218.379 182.895 205.933C185.83 202.202 188.004 198.084 189.415 193.58C192.13 187.601 193.96 181.311 194.905 174.707C217.116 170.7 239.306 166.697 261.475 162.697C261.475 199.756 261.475 236.816 261.475 273.875C242.717 273.875 223.958 273.875 205.2 273.875C205.2 272.503 205.2 271.13 205.2 269.757C205.427 261.966 205.199 254.188 204.513 246.424C204.097 246.509 203.868 246.737 203.827 247.11C200.096 251.185 196.207 255.188 192.16 259.12C187.651 262.383 183.075 265.472 178.434 268.385C164.097 274.97 148.999 278.173 133.139 277.993C86.2387 277.492 54.7835 255.302 38.7752 211.423C37.4321 205.054 36.4027 198.648 35.6869 192.207C39.7319 191.906 43.6204 191.22 47.3538 190.148C52.4693 189.67 57.5025 188.754 62.452 187.403C132.785 172.567 201.871 153.465 269.71 130.098C263.954 126.762 258.006 123.789 251.867 121.177C245.275 119.242 238.64 117.412 231.965 115.686C193.612 106.898 155.18 98.5483 116.669 90.6368C109.524 88.5635 102.204 86.8478 94.7075 85.4896C89.8815 84.0457 86.1069 81.1859 83.3838 76.9111C78.6779 68.4018 73.6447 60.1664 68.2855 52.2048C67.9492 51.3174 67.8346 50.4019 67.9423 49.4596C71.9056 48.9621 75.5656 49.7623 78.9229 51.8616C86.7006 59.1822 94.479 66.5022 102.257 73.8228C103.746 74.9112 105.348 75.8267 107.061 76.5679C129.407 80.105 151.826 83.1933 174.317 85.8328C184.955 87.3632 195.707 88.7358 206.572 89.9505C210.65 90.6581 214.768 91.1151 218.925 91.3231C227.92 92.9592 237.071 94.1032 246.377 94.7545C251.596 95.6906 256.857 96.3769 262.161 96.8134C265.466 97.6026 268.898 97.7165 272.456 97.1565C320.378 80.6115 368.189 64.026 415.889 47.4008C424.869 44.751 433.791 41.8913 442.654 38.8222C449.895 36.8972 457.215 35.41 464.616 34.3613C472.384 33.8404 480.16 33.6112 487.949 33.675Z" fill="white"/>
<path fill-rule="evenodd" clip-rule="evenodd" d="M96.0801 59.7539C90.4758 54.7227 84.7563 49.8041 78.9229 44.9988C71.8466 43.6646 64.7545 43.6646 57.648 44.9988C65.0826 57.4665 72.5178 69.9336 79.9523 82.4013C82.4099 85.3194 85.2697 87.7214 88.5309 89.6073C92.1922 90.7081 95.6237 91.9668 98.8252 93.3819C99.0537 111.232 98.8252 129.075 98.1389 146.912C91.6144 149.086 85.2086 151.373 78.9229 153.775C65.8471 157.524 52.8077 161.412 39.8046 165.442C39.1012 163.473 37.7286 162.215 35.6869 161.667C35.8825 109.901 35.8825 58.0862 35.6869 6.2236C55.7004 6.25105 75.8312 6.25105 96.0801 6.2236C96.5213 22.805 96.0643 39.2758 94.7075 55.6362C96.1816 56.8489 96.6394 58.2214 96.0801 59.7539Z" fill="white"/>
<path fill-rule="evenodd" clip-rule="evenodd" d="M39.1183 179.854C38.0209 179.67 37.1061 179.899 36.3732 180.54C25.8744 182.477 15.3515 184.422 4.804 186.374C3.2029 186.831 1.60111 186.831 0 186.374C30.1664 178.494 59.9059 169.459 89.2172 159.265C125.371 147.483 161.058 134.557 196.278 120.49C196.926 118.624 197.154 116.68 196.964 114.657C209.393 116.849 221.747 119.479 234.024 122.549C170.368 146.126 105.399 165.228 39.1183 179.854Z" fill="white"/>
<path fill-rule="evenodd" clip-rule="evenodd" d="M490.008 177.795C492.245 194.278 490.42 210.292 484.518 225.835C472.144 249.968 452.702 265.409 426.184 272.159C378.317 283.747 332.793 277.8 289.613 254.316C283.897 251.036 278.521 247.262 273.485 242.992C274.746 239.342 276.233 235.681 277.946 232.012C284.157 218.444 290.563 204.947 297.162 191.521C324.897 213.919 356.695 224.328 392.556 222.747C401.9 221.787 410.25 218.47 417.605 212.796C426.335 200.634 424.62 190.225 412.458 181.57C408.455 179.473 404.337 177.643 400.105 176.079C382.308 171.139 364.465 166.335 346.574 161.667C337.297 158.576 328.375 154.686 319.809 150C330.112 146.767 340.521 143.908 351.035 141.422C358.182 142.992 365.388 144.25 372.653 145.196C374.458 147.689 376.517 149.976 378.83 152.059C386.024 155.498 393.573 156.641 401.477 155.491C406.732 154.748 411.993 154.062 417.262 153.432C419.957 152.935 422.474 152.134 424.811 151.03C433.033 149.613 438.638 145.038 441.625 137.304C441.854 132.958 442.083 128.611 442.311 124.265C460.205 130.721 473.929 142.16 483.488 158.579C486.419 164.738 488.594 171.144 490.008 177.795Z" fill="white"/>
</svg>
